:SAMPLES-PER-SECOND 30
:FULLY-SPECIFIED
:DEGREES
287
root  -77.6582 38.955 -5.09745 4.03674 39.6737 -1.51492
RightUpLeg  -11.7283 -14.0277 -2.2815
RightLeg  28.1152 -9.20976 -1.6231
RightFoot  -19.7277 0.174169 4.19796
RightToes  -8.3237e-009 0 -3.6325e-017
Spine  4.48917 0.834152 18.4573
Spine1  3.38005 2.17472 1.19429
HEad  -18.8771 13.0971 -9.29613
LeftShoulder1  -0.375324 4.45523 -33.3334
LeftArm  4.60551 3.90476 -36.9699
LeftForeArm  20.4386 -13.9464 -8.13746
LeftHand  0.00109861 6.97248 2.81413
RightShoulder  -0.432568 -4.83645 25.465
RightArm  19.0741 -1.60101 36.8789
RightForeArm  14.8161 6.43944 8.81401
RightHand  -0.0798543 3.21386 -1.31627
LeftUpLeg  -4.83927 -8.16131 5.81344
LeftLeg  94.7733 -73.7936 -97.1264
LeftFoot  -17.3488 -1.94786 -37.748
LeftToes  -1.18267e-011 3.61711e-011 9.57411e-011
288
root  -77.8567 38.9523 -5.00385 4.03476 43.5886 -0.973511
RightUpLeg  -11.0631 -14.3179 -2.34592
RightLeg  28.6274 -12.5506 -3.13835
RightFoot  -19.7507 0.175318 4.20356
RightToes  -8.3237e-009 0 -3.6325e-017
Spine  4.97207 0.683822 18.7143
Spine1  3.26058 2.3589 0.245928
HEad  -18.6139 10.2265 -9.47537
LeftShoulder1  -0.422025 4.58597 -32.8553
LeftArm  4.07805 5.46275 -37.6832
LeftForeArm  20.352 -13.9374 -8.0468
LeftHand  0.0478327 7.34548 4.70636
RightShoulder  -0.581989 -5.24806 26.6496
RightArm  19.9838 0.269647 37.9074
RightForeArm  14.3292 7.00595 9.12689
RightHand  -0.0847594 2.78275 -1.41999
LeftUpLeg  -4.83436 -7.76496 6.23481
LeftLeg  97.7183 -73.3854 -100.215
LeftFoot  -17.4188 -1.93511 -37.1096
LeftToes  -1.18267e-011 3.61711e-011 9.57411e-011
289
root  -78.0046 38.9827 -4.89991 4.31366 47.5019 -0.221161
RightUpLeg  -10.2566 -14.857 -2.72192
RightLeg  28.8785 -15.6929 -4.21532
RightFoot  -19.8115 0.215836 4.72527
RightToes  -8.3237e-009 0 -3.6325e-017
Spine  5.22027 0.848589 18.8038
Spine1  3.0995 2.69593 -0.338233
HEad  -17.2153 8.0418 -10.4215
LeftShoulder1  -0.34253 4.37482 -33.1899
LeftArm  3.39482 6.45948 -37.9795
LeftForeArm  21.1992 -12.9898 -8.47067
LeftHand  0.105925 8.72323 5.09581
RightShoulder  -0.535734 -5.10474 26.663
RightArm  19.8268 0.895966 39.3276
RightForeArm  13.0554 8.08004 8.87964
RightHand  -0.0987029 2.85427 -1.61763
LeftUpLeg  -4.74463 -6.18274 6.6411
LeftLeg  106.103 -73.2835 -108.932
LeftFoot  -17.0534 -1.7751 -36.4277
LeftToes  -1.18267e-011 3.61711e-011 9.57411e-011
290
root  -78.1088 39.0151 -4.7548 4.95013 51.0724 0.547546
RightUpLeg  -9.78097 -14.9274 -2.73555
RightLeg  29.1254 -19.018 -5.71392
RightFoot  -19.7549 0.243585 5.13385
RightToes  -8.3237e-009 0 -3.6325e-017
Spine  5.15767 1.09212 18.5667
Spine1  3.1533 2.96915 -0.730839
HEad  -17.0381 6.79927 -9.83224
LeftShoulder1  -0.31326 4.29506 -33.4493
LeftArm  2.03312 7.40875 -38.3464
LeftForeArm  23.537 -11.4639 -9.00186
LeftHand  0.0758787 7.95897 5.00273
RightShoulder  -0.613588 -5.31431 27.1725
RightArm  21.0529 2.53876 40.4724
RightForeArm  11.1741 9.53626 8.79685
RightHand  -0.0835991 3.47406 -1.34055
LeftUpLeg  -4.44358 -4.63831 6.94311
LeftLeg  120.578 -73.0671 -123.858
LeftFoot  -17.354 -1.83917 -35.8232
LeftToes  -1.18267e-011 3.61711e-011 9.57411e-011
291
root  -78.1548 39.1379 -4.57391 5.72617 54.3528 1.7457
RightUpLeg  -8.53182 -15.0186 -3.12599
RightLeg  28.4221 -21.9835 -6.55916
RightFoot  -19.3239 0.287 5.98787
RightToes  -8.3237e-009 0 -3.6325e-017
Spine  5.77317 1.16455 18.5
Spine1  2.56213 3.28769 -2.3037
HEad  -16.5644 6.34453 -9.05028
LeftShoulder1  -0.335209 4.35269 -33.349
LeftArm  0.792847 8.64822 -38.8437
LeftForeArm  27.0976 -10.1952 -9.26194
LeftHand  0.0241728 7.90273 3.03591
RightShoulder  -0.612177 -5.28777 27.5881
RightArm  22.9727 3.82233 41.795
RightForeArm  8.53683 11.8352 8.34485
RightHand  -0.120328 3.51071 -1.81812
LeftUpLeg  -4.44242 -2.63935 6.94529
LeftLeg  138.426 -70.1043 -142.269
LeftFoot  -16.0387 -1.43998 -36.2749
LeftToes  -1.18267e-011 3.61711e-011 9.57411e-011
292
root  -78.0897 39.2474 -4.34153 6.75369 57.5874 3.01355
RightUpLeg  -7.22435 -15.0598 -3.42428
RightLeg  27.7265 -25.0423 -7.34417
RightFoot  -18.8894 0.307952 6.60188
RightToes  -8.3237e-009 0 -3.6325e-017
Spine  5.81113 1.46204 17.7551
Spine1  2.24006 3.46698 -2.68206
HEad  -15.3887 4.59798 -9.21944
LeftShoulder1  -0.326442 4.32773 -33.4801
LeftArm  -0.0861719 9.90194 -39.4191
LeftForeArm  30.5852 -8.54769 -9.71461
LeftHand  0.000142399 8.87804 1.46443
RightShoulder  -0.608677 -5.29095 27.3277
RightArm  24.5004 4.48941 43.1096
RightForeArm  5.38293 14.5277 7.36656
RightHand  -0.136934 3.97831 -1.96599
LeftUpLeg  -4.48848 -1.60314 6.58956
LeftLeg  155.741 -64.0901 -160.001
LeftFoot  -15.2019 -1.23542 -37.9404
LeftToes  -1.18267e-011 3.61711e-011 9.57411e-011
